<svg xmlns="http://www.w3.org/2000/svg" width="150" height="45.846" viewBox="0 0 150 45.846">
	<path class="txt-subline" fill="#004086" d="M1.358 33.551h1.266v9.535H1.358zM12.39 43.086h1.199v-7.482h.026l4.981 7.482h1.292v-9.535h-1.2v7.484h-.025l-4.981-7.484H12.39zM29.074 43.086h1.265v-4.315h4.475v-1.132h-4.475v-2.955h5.167v-1.133h-6.432z"/>
	<path class="txt-subline" fill-rule="evenodd" clip-rule="evenodd" fill="#004086" d="M43.829 38.438c0 2.438 1.586 4.808 4.569 4.808 2.544 0 4.555-1.824 4.555-4.914 0-3.062-1.958-4.939-4.555-4.939-2.477 0-4.569 1.664-4.569 5.045m1.307.028c0-.308 0-1.758.68-2.718.57-.838 1.582-1.278 2.596-1.278 1.624 0 3.237 1.132 3.237 3.862 0 2.623-1.519 3.836-3.266 3.836-1.927 0-3.247-1.492-3.247-3.702M61.246 43.086h1.264v-4.207h1.453c1.05 0 1.491.092 2.849 2.236l1.252 1.971h1.583l-1.664-2.598c-.747-1.156-1.319-1.504-1.798-1.73v-.025c1.624-.214 2.675-1.039 2.675-2.572 0-.998-.517-1.984-1.491-2.355-.624-.24-1.239-.254-1.904-.254h-4.22v9.534zm1.264-8.482h3.009c.495 0 .906.053 1.304.268.399.211.733.691.733 1.289 0 .576-.334 1.148-.825 1.359-.519.227-.946.227-1.518.227H62.51v-3.143z"/>
	<path class="txt-subline" fill="#004086" d="M78.085 43.086h1.2v-8.109h.039l2.729 8.109h1.132l2.743-7.977h.027v7.977h1.2v-9.535h-1.679l-2.278 6.633c-.304.905-.347 1.012-.505 1.533h-.026c-.067-.281-.12-.467-.44-1.414l-2.25-6.752h-1.892v9.535z"/>
	<path class="txt-subline" fill-rule="evenodd" clip-rule="evenodd" fill="#004086" d="M94.99 43.086h1.331l1.054-2.902h3.98l1.117 2.902h1.426l-3.889-9.535h-1.357l-3.662 9.535zm3.796-6.711c.225-.599.386-1.199.505-1.824h.027c.199.772.412 1.358.652 1.984l1 2.648h-3.238l1.054-2.808z"/>
	<path class="txt-subline" fill="#004086" d="M113.5 43.086h1.267v-8.402h3.155v-1.133h-7.55v1.133h3.128zM126.499 33.551h1.265v9.535h-1.265zM137.006 43.086h1.265v-3.301l1.571-1.519 3.383 4.82h1.664l-4.168-5.672 3.994-3.863h-1.701l-4.743 4.729v-4.729h-1.265z"/>
	<path class="txt-aro" fill-rule="evenodd" clip-rule="evenodd" fill="#004086" d="M19.727 22.987h-9.204l-1.264 4.255H1l9.827-25.779h8.81l9.827 25.779h-8.456l-1.281-4.255zm-1.697-5.575l-2.889-9.269-2.871 9.269h5.76zM55.942 14.401c0-4.225 1.179-7.515 3.531-9.869C61.829 2.179 65.106 1 69.309 1c4.308 0 7.625 1.159 9.957 3.479 2.329 2.308 3.495 5.542 3.495 9.709 0 3.026-.511 5.509-1.536 7.453-1.01 1.93-2.483 3.436-4.414 4.518-1.917 1.072-4.312 1.607-7.186 1.607-2.917 0-5.337-.465-7.255-1.396-1.907-.928-3.454-2.401-4.644-4.413-1.189-2.013-1.784-4.532-1.784-7.556m7.998.034c0 2.614.482 4.491 1.449 5.634.976 1.142 2.3 1.713 3.973 1.713 1.718 0 3.047-.561 3.99-1.678.939-1.119 1.411-3.125 1.411-6.022 0-2.437-.495-4.212-1.482-5.33-.977-1.131-2.307-1.696-3.991-1.696-1.61 0-2.908.572-3.885 1.712-.975 1.143-1.465 3.031-1.465 5.667M38.877 11.874h3.407c.368 0 1.081-.118 2.139-.356a2.084 2.084 0 0 0 1.302-.821c.343-.44.516-.946.517-1.515 0-.846-.268-1.492-.802-1.945-.534-.45-1.541-.675-3.013-.675h-3.551v5.312zm-8.115 15.368V1.463h13.466c2.495 0 4.403.21 5.724.632 1.32.422 2.381 1.208 3.192 2.357.809 1.138 1.211 2.526 1.213 4.168 0 1.43-.309 2.667-.929 3.709-.617 1.032-1.466 1.87-2.549 2.515-.692.41-2.079.751-3.279 1.019.057.007 8.877 11.377 8.877 11.377h-9.13l-8.471-10.463V27.24h-8.114z"/>
	<path class="txt-net" fill="#C20049" d="M105.604 1.451l-3.235 15.015h-.072l-6.35-15.015h-7.451l-5.542 25.776h7.491l3.2-14.979h.072l6.384 14.979h21.723l1.268-5.876H108.9l1.091-5.04h12.535l1.16-5.222h-12.555l.865-4.098h13.083l.005-.026h5.946l-4.342 20.262h8l4.358-20.262h8.385l1.148-5.514z"/>
</svg>